<svg width="32" height="32" viewBox="0 0 32 32" fill="none" xmlns="http://www.w3.org/2000/svg" xmlns:xlink="http://www.w3.org/1999/xlink">
<path d="M9.217,19.382C11.147,18.922 13.483,18.652 16,18.652C18.517,18.652 20.853,18.922 22.783,19.382C24.61,19.819 26.664,20.845 27.571,21.557L16.566,3.907C16.305,3.489 15.695,3.489 15.434,3.907L4.429,21.557C5.336,20.845 7.39,19.819 9.217,19.382L9.217,19.382Z" clip-rule="evenodd" fill-rule="evenodd" fill="#1C120D"/>
<path d="M26.665,22.843C26.663,22.831 26.658,22.81 26.65,22.78C26.629,22.707 26.597,22.617 26.556,22.522C26.545,22.494 26.533,22.466 26.521,22.44C25.674,21.859 23.986,21.04 22.473,20.679C20.658,20.246 18.428,19.986 16,19.986C13.572,19.986 11.342,20.246 9.527,20.679C8.001,21.044 6.297,21.874 5.457,22.455C5.449,22.472 5.441,22.489 5.434,22.506C5.399,22.583 5.371,22.659 5.353,22.726C5.336,22.79 5.334,22.822 5.333,22.826C5.333,22.826 5.333,22.826 5.333,22.826C5.333,22.843 5.34,23.051 5.79,23.421C6.23,23.783 6.948,24.169 7.953,24.518C9.949,25.213 12.795,25.667 16,25.667C19.205,25.667 22.051,25.213 24.047,24.518C25.052,24.169 25.77,23.783 26.21,23.421C26.6,23.1 26.657,22.901 26.665,22.843L26.665,22.843ZM3.301,20.846L14.303,3.202C15.086,1.946 16.914,1.946 17.697,3.202L28.702,20.851C28.714,20.87 28.725,20.889 28.736,20.909L27.571,21.557C28.736,20.909 28.736,20.908 28.736,20.909L28.737,20.91L28.738,20.912L28.74,20.916L28.747,20.928C28.752,20.937 28.758,20.95 28.766,20.965C28.783,20.995 28.804,21.036 28.829,21.087C28.879,21.186 28.946,21.326 29.014,21.488C29.127,21.755 29.333,22.287 29.333,22.826C29.333,23.962 28.669,24.852 27.904,25.481C27.13,26.117 26.09,26.631 24.923,27.037C22.577,27.853 19.422,28.333 16,28.333C12.578,28.333 9.423,27.853 7.077,27.037C5.91,26.631 4.87,26.117 4.096,25.481C3.331,24.852 2.667,23.962 2.667,22.826C2.667,22.248 2.862,21.728 2.995,21.426C3.069,21.26 3.142,21.12 3.198,21.021C3.226,20.97 3.25,20.929 3.269,20.898C3.278,20.883 3.286,20.87 3.293,20.859L3.298,20.851L3.301,20.846L3.301,20.846ZM23.991,18.336L16,5.52L8.009,18.336C8.311,18.241 8.612,18.156 8.908,18.085C10.952,17.597 13.393,17.319 16,17.319C18.607,17.319 21.048,17.597 23.092,18.085C23.388,18.156 23.689,18.241 23.991,18.336L23.991,18.336Z" clip-rule="evenodd" fill-rule="evenodd" fill="#1C120D"/>
</svg>
