<svg width="34" height="34" viewBox="0 0 34 34" fill="none" xmlns="http://www.w3.org/2000/svg" xmlns:xlink="http://www.w3.org/1999/xlink">
<path d="M32.081,30.125C29.702,26.011 26.034,23.061 21.755,21.663C26.106,19.072 28.19,13.894 26.847,9.011C25.504,4.129 21.064,0.746 16,0.746C10.936,0.746 6.496,4.129 5.153,9.011C3.81,13.894 5.894,19.072 10.245,21.663C5.966,23.059 2.298,26.009 -0.081,30.125C-0.319,30.512 -0.327,30.998 -0.104,31.394C0.12,31.789 0.541,32.032 0.995,32.028C1.449,32.025 1.866,31.774 2.083,31.375C5.027,26.288 10.23,23.25 16,23.25C21.77,23.25 26.973,26.288 29.917,31.375C30.134,31.774 30.551,32.025 31.005,32.028C31.459,32.032 31.88,31.789 32.104,31.394C32.327,30.998 32.319,30.512 32.081,30.125L32.081,30.125ZM7.25,12C7.25,7.168 11.168,3.25 16,3.25C20.832,3.25 24.75,7.168 24.75,12C24.75,16.832 20.832,20.75 16,20.75C11.17,20.745 7.255,16.83 7.25,12L7.25,12Z" clip-rule="evenodd" fill-rule="evenodd" fill="#1C120D"/>
</svg>
