<svg width="38" height="32" viewBox="0 0 38 32" fill="none" xmlns="http://www.w3.org/2000/svg" xmlns:xlink="http://www.w3.org/1999/xlink">
<path d="M35.561,17.061L22.061,30.561C21.475,31.147 20.525,31.147 19.939,30.561C19.353,29.975 19.353,29.025 19.939,28.439L30.879,17.5L1.5,17.5C0.672,17.5 0,16.828 0,16C0,15.172 0.672,14.5 1.5,14.5L30.879,14.5L19.939,3.561C19.353,2.975 19.353,2.025 19.939,1.439C20.525,0.853 21.475,0.853 22.061,1.439L35.561,14.939C35.843,15.22 36.001,15.602 36.001,16C36.001,16.398 35.843,16.78 35.561,17.061L35.561,17.061Z" clip-rule="evenodd" fill-rule="evenodd" fill="#E4B089"/>
</svg>
