<svg width="34" height="28" viewBox="0 0 34 28" fill="none" xmlns="http://www.w3.org/2000/svg" xmlns:xlink="http://www.w3.org/1999/xlink">
<path d="M29.75,-0.75L2.25,-0.75C0.869,-0.75 -0.25,0.369 -0.25,1.75L-0.25,24.25C-0.25,25.631 0.869,26.75 2.25,26.75L29.75,26.75C31.131,26.75 32.25,25.631 32.25,24.25L32.25,1.75C32.25,0.369 31.131,-0.75 29.75,-0.75L29.75,-0.75ZM29.75,24.25L2.25,24.25L2.25,1.75L29.75,1.75L29.75,24.25L29.75,24.25ZM23.5,6.75C23.5,10.892 20.142,14.25 16,14.25C11.858,14.25 8.5,10.892 8.5,6.75C8.5,6.06 9.06,5.5 9.75,5.5C10.44,5.5 11,6.06 11,6.75C11,9.511 13.239,11.75 16,11.75C18.761,11.75 21,9.511 21,6.75C21,6.06 21.56,5.5 22.25,5.5C22.94,5.5 23.5,6.06 23.5,6.75L23.5,6.75Z" clip-rule="evenodd" fill-rule="evenodd" fill="#1C120D"/>
</svg>
