<svg width="34" height="34" viewBox="0 0 34 34" fill="none" xmlns="http://www.w3.org/2000/svg" xmlns:xlink="http://www.w3.org/1999/xlink">
<path d="M31.884,31.116L24.061,23.294C28.772,17.638 28.201,9.278 22.765,4.316C17.33,-0.647 8.952,-0.457 3.748,4.748C-1.457,9.952 -1.647,18.33 3.316,23.765C8.278,29.201 16.638,29.772 22.294,25.061L30.116,32.884C30.604,33.373 31.396,33.373 31.884,32.884C32.373,32.396 32.373,31.604 31.884,31.116L31.884,31.116ZM2.25,14.5C2.25,8.287 7.287,3.25 13.5,3.25C19.713,3.25 24.75,8.287 24.75,14.5C24.75,20.713 19.713,25.75 13.5,25.75C7.29,25.743 2.257,20.71 2.25,14.5L2.25,14.5Z" clip-rule="evenodd" fill-rule="evenodd" fill="#1C120D"/>
</svg>
